<svg xmlns="http://www.w3.org/2000/svg" width="1024" height="1024" viewBox="236.23216006709228 195.19752790313782 551.3522137282251 633.4027457941245" opacity="0.7"><path fill="none" fill-rule="evenodd" d="M618.5 226.898c-13.889 7.997-51.794 49.672-77.719 85.449L533.061 323l-5.28-.074c-13.544-.19-13.149.058-22.971-14.426-20.49-30.216-55.067-70.406-65.02-75.574-8.022-4.165-16.176-1.339-20.406 7.074-3.142 6.251-4.851 13.716-7.783 34-3.216 22.255-4.369 36.17-5.219 63l-.682 21.5-7.922 8.393c-11.576 12.263-18.062 20.62-22.741 29.298-3.635 6.742-4.269 8.901-5.139 17.5-1.992 19.688-1.446 18.045-7.218 21.736-2.849 1.822-11.93 6.743-20.18 10.937a3787 3787 0 0 0-31.5 16.251c-9.075 4.744-21.237 11.016-27.026 13.937-12.469 6.291-18.077 11.454-21.073 19.399-2.83 7.507-2.077 12.883 3.491 24.914 2.452 5.299 5.67 12.56 7.151 16.135s5.293 11.687 8.47 18.026c5.884 11.738 10.96 17.84 17.77 21.362 1.657.857 5.497 5.104 8.535 9.439 8.695 12.408 18.505 19.643 32.852 24.228 10.293 3.289 17.798 3.904 47.893 3.925l28.563.02 2.633 2.75c7.481 7.811 9.763 23.642 5.741 39.815-1.222 4.914-4.417 14.885-7.1 22.157s-6.095 18.972-7.583 26c-2.356 11.123-2.682 14.775-2.511 28.196.108 8.479.386 15.607.618 15.839s4.8-1.665 10.15-4.216 10.092-4.275 10.537-3.83c.444.444 1.461 5.979 2.259 12.298 2.383 18.867 9.971 45.417 13.351 46.714 1.543.592 24.156-1.956 42.779-4.82 55.587-8.55 97.313-20.597 134.52-38.838 33.719-16.531 59.633-35.869 82.03-61.213 27.766-31.419 44.588-65.468 54.582-110.478 4.116-18.536 4.338-16.357-2.632-25.845-1.925-2.62-5.588-7.379-8.14-10.576s-7.011-9.781-9.908-14.633-7.144-11.52-9.439-14.82-6.115-9.6-8.491-14-7.117-12.725-10.536-18.5c-6.766-11.428-15.577-27.189-21.804-39-2.174-4.125-5.181-9.3-6.681-11.5-5.717-8.385-7.151-12.223-6.08-16.273.543-2.05 1.454-9.194 2.025-15.876 1.316-15.403-.023-33.625-3.92-53.351-1.576-7.975-3.178-16.525-3.559-19s-3.106-15.172-6.053-28.216-6.318-28.569-7.491-34.5c-4.705-23.798-11.754-38.603-20.314-42.665-5.403-2.564-12.278-2.079-18.109 1.279" stroke="currentColor" stroke-width="31"/></svg>